<svg id="Layer_1" data-name="Layer 1" xmlns="http://www.w3.org/2000/svg" viewBox="0 0 595.75 595.75"><defs><style>.cls-1{fill:#ffce2f;}.cls-2{fill:#3e4ba0;}.cls-3{fill:#3b4fa2;}.cls-4{fill:#3c4ba0;}.cls-5{fill:#fefefe;}.cls-6{fill:#fdfdfd;}.cls-7{fill:#f8f7f7;}.cls-8{fill:#f7f7f7;}.cls-9{fill:#f8f8f7;}.cls-10{fill:#f6f6f6;}.cls-11{fill:#f6f5f5;}.cls-12{fill:#f8f8f8;}.cls-13{fill:#fff;}</style></defs><circle class="cls-1" cx="298.08" cy="303.61" r="187.11"/><path class="cls-2" d="M316.63,274.49c-2.39,2.13-3.4,4.58-4.52,7-3,6.36-4,13.24-5.11,20.07a149.24,149.24,0,0,0-1.65,32.58c.45,8,2.23,15.86,3.54,23.76,2.09,12.56,5,25,7.6,37.41,1.79,8.55,2.91,17.21,4.73,25.72,3.11,14.59,3.12,29.32,3,44.09-.08,6.95,0,13.91-.4,20.87-.11,2-.74,3-2.65,3.41a93.27,93.27,0,0,1-19,2.09c-8.6.18-17.2.11-25.7-1.63-2-.41-3-1.35-3.12-3.33-.07-1.07-.38-2.13-.38-3.19.08-12.35-.95-24.69-.38-37,.29-6.5,1.28-13,1.92-19.45,1.34-13.63,4.65-26.9,7.69-40.19,2.36-10.32,4.81-20.62,6.39-31.07,2.21-14.61,3.77-29.35,2.76-44.14a97.77,97.77,0,0,0-7.07-31.24,16.26,16.26,0,0,0-4.06-6.27c0,4.86,0,9.25,0,13.64-.08,10.33-.61,20.6-3,30.72s-6.71,19.19-13.85,26.72c-6.88,7.24-15.7,11.29-25.12,14.21-9.06,2.8-18.38,4.18-27.78,5.16-11.46,1.19-23,2.23-34.18,4.9-12.34,2.93-24.27,7.07-34.6,14.85-2.46,1.85-5.14,3.39-7.67,5.15-1,.66-1.4.49-2-.48a100.3,100.3,0,0,1-8.28-17.61c-2.36-6.59-4.61-13.22-6.37-20a205.76,205.76,0,0,1-4.87-23.93A204.8,204.8,0,0,1,111,297.68a172,172,0,0,1,2.61-26.87c6.16-37.2,22.37-69.43,47.8-97.13a186.21,186.21,0,0,1,61.45-43.94,175.79,175.79,0,0,1,35.53-11.67c10.43-2.22,21-3.94,31.67-4.07,12.39-.14,24.83-.39,37.12,1.81a199.76,199.76,0,0,1,47.25,14.1,188.75,188.75,0,0,1,93,92.63,195.76,195.76,0,0,1,13.36,38.77c1.1,4.88,1.77,9.83,2.59,14.76,2.2,13.26,1.71,26.6,1.33,39.91a153.47,153.47,0,0,1-3.33,25.73c-3.16,15.72-8.85,30.53-15.64,45-.28.58-.66,1.1-1,1.66-.83,1.46-1.74,1.4-2.9.29-7.21-6.9-15.93-11.35-25.06-15-12.25-4.92-25.16-6.79-38.17-8.48-13.94-1.82-28-3.06-41.59-7.17-19.42-5.87-31.54-18.76-37-38a92.43,92.43,0,0,1-3.41-24.81c0-6.38-.26-12.76.05-19.14A14.51,14.51,0,0,0,316.63,274.49Zm63.8-98.65c-2.9,1.39-5.76,2.87-8.7,4.16-5.37,2.34-10.78,4.6-16.18,6.85-1.13.47-1.66.87-.75,2.12a15,15,0,0,1,2.26,5.06c.41,1.54.85,2,2.3.72,3.15-2.82,6.45-5.47,9.7-8.18a133.72,133.72,0,0,0,11.61-10.45c.18-.05.4-.1.25-.34C380.88,175.72,380.6,175.82,380.43,175.84Zm-83.17,94.22c6.28-.26,12.57-.36,18.58-2.6,20.87-7.8,33.35-22.52,36.94-44.62,2-12-.47-23.29-6.11-33.76-8.22-15.23-21.45-24.14-38.22-27.52-8.84-1.78-17.77-.94-26.52,1.52-18.32,5.14-30.14,17.29-36.88,34.58-4.8,12.3-4.35,24.81.55,37.07C253.4,254.24,273.32,270.79,297.26,270.06Zm47.5,47.67c-.24,6.32,1.87,11.85,4.45,17.22,5.28,10.95,18.17,18.55,31.57,16,7-1.35,13-5,18.2-9.95,11.2-10.76,12.54-31.24-2.47-44.67-7.8-7-17.2-9.18-27.4-6.87C356.47,292.31,344.22,301.14,344.76,317.73Zm-92.66,2.39c.53-16-12.13-31.45-31.72-31a30.7,30.7,0,0,0-29.71,28.55c-1.24,19.79,14.6,32.47,28.66,32.89C239.5,351.17,252.56,337.38,252.1,320.12Zm46-194.33c-2.31,8.82-2.64,17.82-4.45,26.57-.22,1-.05,1.61,1.26,1.37,2.11-.39,4.28-.83,6.39-.22,2,.56,2-.37,1.75-1.79-1.14-6.69-2.21-13.39-3.41-20.07C299.28,129.71,299.14,127.69,298.09,125.79Zm-17.84,30a221,221,0,0,0-16.63-25c1.93,9.63,5.32,18.72,8.84,27.9A23,23,0,0,1,280.25,155.8ZM260.58,166c-7.89-5.69-14.9-12.07-22.34-17.91l-.48.39c5,8,10.05,15.89,15.21,24.07A28.29,28.29,0,0,1,260.58,166Zm100.26,48.8c10-2.83,20.05-4.51,29-9.54-4.3-.4-8.47.38-12.67.6-5.35.27-10.68.82-16,1.23-.79.06-1.41,0-1.06,1.19A21.07,21.07,0,0,1,360.84,214.8ZM318,156.54a23.3,23.3,0,0,1,5.83,2.38c1.46.94,2,.73,2.58-.93,2-5.42,3.82-10.89,5.58-16.38a20.32,20.32,0,0,0,1.33-7.44C327.81,141.31,323.06,148.92,318,156.54ZM206.24,199.89c8.8,4.69,17.68,9.08,26.3,14,.78.45,1.06.15,1.21-.73.3-1.83.73-3.64,1.2-5.43.32-1.22.11-1.7-1.28-2-5.73-1.19-11.44-2.52-17.14-3.87C213.14,201.06,209.79,200,206.24,199.89Zm34.28-10.8a34.57,34.57,0,0,1,3.74-7.19c-9.14-3.13-17.87-6.65-26.94-9.21C224.49,178.88,232.92,183.25,240.52,189.09Zm105-14.72c3.88-7,7.71-14,11.54-20.91l-.47-.38c-1.31,1.27-2.63,2.53-3.93,3.81-3.94,3.87-7.89,7.73-11.8,11.63-.44.44-1.59.84-.38,1.77C342.16,171.59,343.79,173,345.5,174.37Z"/><path class="cls-3" d="M200.53,436.79c.15,6.41-1,14.63-2.17,22.84-.28,1.9-1.19,1.15-2.05.72a71.55,71.55,0,0,1-11.85-7.73,191.52,191.52,0,0,1-39.16-41.13,142.89,142.89,0,0,1-7.86-12.8c-.69-1.26-.61-1.87.73-2.61a57.51,57.51,0,0,1,23.36-7.14,44.39,44.39,0,0,1,16.36,1.27c8.89,2.6,14.71,8.56,18.25,16.89C199.92,416,200.56,425.38,200.53,436.79Z"/><path class="cls-4" d="M397.82,435.2A92,92,0,0,1,399,414.49c1.83-9.67,7.41-16.6,15.62-21.53a34.76,34.76,0,0,1,22-4.86,38.55,38.55,0,0,1,10.47,3c3.44,1.4,6.77,3,10.11,4.64,2,1,2,1.89,1.05,3.7a149.26,149.26,0,0,1-14.88,21.77c-11.51,14.49-25.26,26.54-40.09,37.47-1.14.84-2.54,2.08-3.74,1.6-1-.38-.62-2.31-.74-3.55C398.14,449.41,397.31,442.14,397.82,435.2Z"/><path class="cls-5" d="M297.26,270.06c-23.94.73-43.86-15.82-51.66-35.33-4.9-12.26-5.35-24.77-.55-37.07,6.74-17.29,18.56-29.44,36.88-34.58,8.75-2.46,17.68-3.3,26.52-1.52,16.77,3.38,30,12.29,38.22,27.52,5.64,10.47,8.06,21.77,6.11,33.76-3.59,22.1-16.07,36.82-36.94,44.62C309.83,269.7,303.54,269.8,297.26,270.06Z"/><path class="cls-5" d="M344.76,317.73c-.54-16.59,11.71-25.42,24.35-28.29,10.2-2.31,19.6-.09,27.4,6.87,15,13.43,13.67,33.91,2.47,44.67-5.16,5-11.18,8.6-18.2,9.95-13.4,2.57-26.29-5-31.57-16C346.63,329.58,344.52,324.05,344.76,317.73Z"/><path class="cls-6" d="M252.1,320.12c.46,17.26-12.6,31.05-32.77,30.44-14.06-.42-29.9-13.1-28.66-32.89a30.7,30.7,0,0,1,29.71-28.55C240,288.67,252.63,304.16,252.1,320.12Z"/><path class="cls-7" d="M298.09,125.79c1.05,1.9,1.19,3.92,1.54,5.86,1.2,6.68,2.27,13.38,3.41,20.07.24,1.42.21,2.35-1.75,1.79-2.11-.61-4.28-.17-6.39.22-1.31.24-1.48-.32-1.26-1.37C295.45,143.61,295.78,134.61,298.09,125.79Z"/><path class="cls-8" d="M280.25,155.8a23,23,0,0,0-7.79,2.93c-3.52-9.18-6.91-18.27-8.84-27.9A221,221,0,0,1,280.25,155.8Z"/><path class="cls-8" d="M260.58,166a28.29,28.29,0,0,0-7.61,6.55c-5.16-8.18-10.18-16.12-15.21-24.07l.48-.39C245.68,153.93,252.69,160.31,260.58,166Z"/><path class="cls-7" d="M360.84,214.8a21.07,21.07,0,0,0-.74-6.52c-.35-1.16.27-1.13,1.06-1.19,5.35-.41,10.68-1,16-1.23,4.2-.22,8.37-1,12.67-.6C380.89,210.29,370.8,212,360.84,214.8Z"/><path class="cls-9" d="M380.67,176.12a133.72,133.72,0,0,1-11.61,10.45c-3.25,2.71-6.55,5.36-9.7,8.18-1.45,1.3-1.89.82-2.3-.72A15,15,0,0,0,354.8,189c-.91-1.25-.38-1.65.75-2.12,5.4-2.25,10.81-4.51,16.18-6.85,2.94-1.29,5.8-2.77,8.7-4.16A2.09,2.09,0,0,0,380.67,176.12Z"/><path class="cls-10" d="M318,156.54c5.08-7.62,9.83-15.23,15.32-22.37a20.32,20.32,0,0,1-1.33,7.44c-1.76,5.49-3.58,11-5.58,16.38-.61,1.66-1.12,1.87-2.58.93A23.3,23.3,0,0,0,318,156.54Z"/><path class="cls-9" d="M206.24,199.89c3.55.13,6.9,1.17,10.29,2,5.7,1.35,11.41,2.68,17.14,3.87,1.39.28,1.6.76,1.28,2-.47,1.79-.9,3.6-1.2,5.43-.15.88-.43,1.18-1.21.73C223.92,209,215,204.58,206.24,199.89Z"/><path class="cls-11" d="M240.52,189.09c-7.6-5.84-16-10.21-23.2-16.4,9.07,2.56,17.8,6.08,26.94,9.21A34.57,34.57,0,0,0,240.52,189.09Z"/><path class="cls-12" d="M345.5,174.37c-1.71-1.39-3.34-2.78-5-4.08-1.21-.93-.06-1.33.38-1.77,3.91-3.9,7.86-7.76,11.8-11.63,1.3-1.28,2.62-2.54,3.93-3.81l.47.38C353.21,160.4,349.38,167.35,345.5,174.37Z"/><path class="cls-9" d="M380.43,175.84c.17,0,.45-.12.49-.06.15.24-.07.29-.25.34A2.09,2.09,0,0,1,380.43,175.84Z"/><path class="cls-13" d="M316.63,274.49a14.51,14.51,0,0,1,.1,1.49c-.31,6.38-.07,12.76-.05,19.14a92.43,92.43,0,0,0,3.41,24.81c5.41,19.27,17.53,32.16,37,38,13.59,4.11,27.65,5.35,41.59,7.17,13,1.69,25.92,3.56,38.17,8.48,9.13,3.67,17.85,8.12,25.06,15,1.16,1.11,2.07,1.17,2.9-.29.32-.56.7-1.08,1-1.66,6.79-14.44,12.48-29.25,15.64-45A153.47,153.47,0,0,0,484.71,316c.38-13.31.87-26.65-1.33-39.91-.82-4.93-1.49-9.88-2.59-14.76a195.76,195.76,0,0,0-13.36-38.77,188.75,188.75,0,0,0-93-92.63,199.76,199.76,0,0,0-47.25-14.1c-12.29-2.2-24.73-2-37.12-1.81-10.67.13-21.24,1.85-31.67,4.07a175.79,175.79,0,0,0-35.53,11.67,186.21,186.21,0,0,0-61.45,43.94c-25.43,27.7-41.64,59.93-47.8,97.13A172,172,0,0,0,111,297.68a204.8,204.8,0,0,0,1.52,29.59,205.76,205.76,0,0,0,4.87,23.93c1.76,6.76,4,13.39,6.37,20A100.3,100.3,0,0,0,132,388.79c.58,1,1,1.14,2,.48,2.53-1.76,5.21-3.3,7.67-5.15,10.33-7.78,22.26-11.92,34.6-14.85,11.21-2.67,22.72-3.71,34.18-4.9,9.4-1,18.72-2.36,27.78-5.16,9.42-2.92,18.24-7,25.12-14.21,7.14-7.53,11.49-16.62,13.85-26.72s2.9-20.39,3-30.72c0-4.39,0-8.78,0-13.64a16.26,16.26,0,0,1,4.06,6.27,97.77,97.77,0,0,1,7.07,31.24c1,14.79-.55,29.53-2.76,44.14-1.58,10.45-4,20.75-6.39,31.07-3,13.29-6.35,26.56-7.69,40.19-.64,6.48-1.63,12.95-1.92,19.45-.57,12.33.46,24.67.38,37,0,1.06.31,2.12.38,3.19.15,2,1.09,2.92,3.12,3.33,8.5,1.74,17.1,1.81,25.7,1.63a93.27,93.27,0,0,0,19-2.09c1.91-.44,2.54-1.41,2.65-3.41.41-7,.32-13.92.4-20.87.15-14.77.14-29.5-3-44.09-1.82-8.51-2.94-17.17-4.73-25.72-2.61-12.45-5.51-24.85-7.6-37.41-1.31-7.9-3.09-15.72-3.54-23.76A149.24,149.24,0,0,1,307,301.52c1.11-6.83,2.13-13.71,5.11-20.07C313.23,279.07,314.24,276.62,316.63,274.49Z"/><path class="cls-13" d="M200.53,436.79c0-11.41-.61-20.81-4.39-29.69-3.54-8.33-9.36-14.29-18.25-16.89a44.39,44.39,0,0,0-16.36-1.27,57.51,57.51,0,0,0-23.36,7.14c-1.34.74-1.42,1.35-.73,2.61a142.89,142.89,0,0,0,7.86,12.8,191.52,191.52,0,0,0,39.16,41.13,71.55,71.55,0,0,0,11.85,7.73c.86.43,1.77,1.18,2.05-.72C199.55,451.42,200.68,443.2,200.53,436.79Z"/><path class="cls-13" d="M397.82,435.2c-.51,6.94.32,14.21,1,21.49.12,1.24-.22,3.17.74,3.55,1.2.48,2.6-.76,3.74-1.6,14.83-10.93,28.58-23,40.09-37.47a149.26,149.26,0,0,0,14.88-21.77c1-1.81,1-2.73-1.05-3.7-3.34-1.61-6.67-3.24-10.11-4.64a38.55,38.55,0,0,0-10.47-3,34.76,34.76,0,0,0-22,4.86c-8.21,4.93-13.79,11.86-15.62,21.53A92,92,0,0,0,397.82,435.2Z"/><path class="cls-2" d="M316.63,274.49c-2.39,2.13-3.4,4.58-4.52,7-3,6.36-4,13.24-5.11,20.07a149.24,149.24,0,0,0-1.65,32.58c.45,8,2.23,15.86,3.54,23.76,2.09,12.56,5,25,7.6,37.41,1.79,8.55,2.91,17.21,4.73,25.72,3.11,14.59,3.12,29.32,3,44.09-.08,6.95,0,13.91-.4,20.87-.11,2-.74,3-2.65,3.41a93.27,93.27,0,0,1-19,2.09c-8.6.18-17.2.11-25.7-1.63-2-.41-3-1.35-3.12-3.33-.07-1.07-.38-2.13-.38-3.19.08-12.35-.95-24.69-.38-37,.29-6.5,1.28-13,1.92-19.45,1.34-13.63,4.65-26.9,7.69-40.19,2.36-10.32,4.81-20.62,6.39-31.07,2.21-14.61,3.77-29.35,2.76-44.14a97.77,97.77,0,0,0-7.07-31.24,16.26,16.26,0,0,0-4.06-6.27c0,4.86,0,9.25,0,13.64-.08,10.33-.61,20.6-3,30.72s-6.71,19.19-13.85,26.72c-6.88,7.24-15.7,11.29-25.12,14.21-9.06,2.8-18.38,4.18-27.78,5.16-11.46,1.19-23,2.23-34.18,4.9-12.34,2.93-24.27,7.07-34.6,14.85-2.46,1.85-5.14,3.39-7.67,5.15-1,.66-1.4.49-2-.48a100.3,100.3,0,0,1-8.28-17.61c-2.36-6.59-4.61-13.22-6.37-20a205.76,205.76,0,0,1-4.87-23.93A204.8,204.8,0,0,1,111,297.68a172,172,0,0,1,2.61-26.87c6.16-37.2,22.37-69.43,47.8-97.13a186.21,186.21,0,0,1,61.45-43.94,175.79,175.79,0,0,1,35.53-11.67c10.43-2.22,21-3.94,31.67-4.07,12.39-.14,24.83-.39,37.12,1.81a199.76,199.76,0,0,1,47.25,14.1,188.75,188.75,0,0,1,93,92.63,195.76,195.76,0,0,1,13.36,38.77c1.1,4.88,1.77,9.83,2.59,14.76,2.2,13.26,1.71,26.6,1.33,39.91a153.47,153.47,0,0,1-3.33,25.73c-3.16,15.72-8.85,30.53-15.64,45-.28.58-.66,1.1-1,1.66-.83,1.46-1.74,1.4-2.9.29-7.21-6.9-15.93-11.35-25.06-15-12.25-4.92-25.16-6.79-38.17-8.48-13.94-1.82-28-3.06-41.59-7.17-19.42-5.87-31.54-18.76-37-38a92.43,92.43,0,0,1-3.41-24.81c0-6.38-.26-12.76.05-19.14A14.51,14.51,0,0,0,316.63,274.49Zm63.8-98.65c-2.9,1.39-5.76,2.87-8.7,4.16-5.37,2.34-10.78,4.6-16.18,6.85-1.13.47-1.66.87-.75,2.12a15,15,0,0,1,2.26,5.06c.41,1.54.85,2,2.3.72,3.15-2.82,6.45-5.47,9.7-8.18a133.72,133.72,0,0,0,11.61-10.45c.18-.05.4-.1.25-.34C380.88,175.72,380.6,175.82,380.43,175.84Zm-83.17,94.22c6.28-.26,12.57-.36,18.58-2.6,20.87-7.8,33.35-22.52,36.94-44.62,2-12-.47-23.29-6.11-33.76-8.22-15.23-21.45-24.14-38.22-27.52-8.84-1.78-17.77-.94-26.52,1.52-18.32,5.14-30.14,17.29-36.88,34.58-4.8,12.3-4.35,24.81.55,37.07C253.4,254.24,273.32,270.79,297.26,270.06Zm47.5,47.67c-.24,6.32,1.87,11.85,4.45,17.22,5.28,10.95,18.17,18.55,31.57,16,7-1.35,13-5,18.2-9.95,11.2-10.76,12.54-31.24-2.47-44.67-7.8-7-17.2-9.18-27.4-6.87C356.47,292.31,344.22,301.14,344.76,317.73Zm-92.66,2.39c.53-16-12.13-31.45-31.72-31a30.7,30.7,0,0,0-29.71,28.55c-1.24,19.79,14.6,32.47,28.66,32.89C239.5,351.17,252.56,337.38,252.1,320.12Zm46-194.33c-2.31,8.82-2.64,17.82-4.45,26.57-.22,1-.05,1.61,1.26,1.37,2.11-.39,4.28-.83,6.39-.22,2,.56,2-.37,1.75-1.79-1.14-6.69-2.21-13.39-3.41-20.07C299.28,129.71,299.14,127.69,298.09,125.79Zm-17.84,30a221,221,0,0,0-16.63-25c1.93,9.63,5.32,18.72,8.84,27.9A23,23,0,0,1,280.25,155.8ZM260.58,166c-7.89-5.69-14.9-12.07-22.34-17.91l-.48.39c5,8,10.05,15.89,15.21,24.07A28.29,28.29,0,0,1,260.58,166Zm100.26,48.8c10-2.83,20.05-4.51,29-9.54-4.3-.4-8.47.38-12.67.6-5.35.27-10.68.82-16,1.23-.79.06-1.41,0-1.06,1.19A21.07,21.07,0,0,1,360.84,214.8ZM318,156.54a23.3,23.3,0,0,1,5.83,2.38c1.46.94,2,.73,2.58-.93,2-5.42,3.82-10.89,5.58-16.38a20.32,20.32,0,0,0,1.33-7.44C327.81,141.31,323.06,148.92,318,156.54ZM206.24,199.89c8.8,4.69,17.68,9.08,26.3,14,.78.45,1.06.15,1.21-.73.3-1.83.73-3.64,1.2-5.43.32-1.22.11-1.7-1.28-2-5.73-1.19-11.44-2.52-17.14-3.87C213.14,201.06,209.79,200,206.24,199.89Zm34.28-10.8a34.57,34.57,0,0,1,3.74-7.19c-9.14-3.13-17.87-6.65-26.94-9.21C224.49,178.88,232.92,183.25,240.52,189.09Zm105-14.72c3.88-7,7.71-14,11.54-20.91l-.47-.38c-1.31,1.27-2.63,2.53-3.93,3.81-3.94,3.87-7.89,7.73-11.8,11.63-.44.44-1.59.84-.38,1.77C342.16,171.59,343.79,173,345.5,174.37Z"/><path class="cls-3" d="M200.53,436.79c.15,6.41-1,14.63-2.17,22.84-.28,1.9-1.19,1.15-2.05.72a71.55,71.55,0,0,1-11.85-7.73,191.52,191.52,0,0,1-39.16-41.13,142.89,142.89,0,0,1-7.86-12.8c-.69-1.26-.61-1.87.73-2.61a57.51,57.51,0,0,1,23.36-7.14,44.39,44.39,0,0,1,16.36,1.27c8.89,2.6,14.71,8.56,18.25,16.89C199.92,416,200.56,425.38,200.53,436.79Z"/><path class="cls-4" d="M397.82,435.2A92,92,0,0,1,399,414.49c1.83-9.67,7.41-16.6,15.62-21.53a34.76,34.76,0,0,1,22-4.86,38.55,38.55,0,0,1,10.47,3c3.44,1.4,6.77,3,10.11,4.64,2,1,2,1.89,1.05,3.7a149.26,149.26,0,0,1-14.88,21.77c-11.51,14.49-25.26,26.54-40.09,37.47-1.14.84-2.54,2.08-3.74,1.6-1-.38-.62-2.31-.74-3.55C398.14,449.41,397.31,442.14,397.82,435.2Z"/><path class="cls-1" d="M297.26,270.06c-23.94.73-43.86-15.82-51.66-35.33-4.9-12.26-5.35-24.77-.55-37.07,6.74-17.29,18.56-29.44,36.88-34.58,8.75-2.46,17.68-3.3,26.52-1.52,16.77,3.38,30,12.29,38.22,27.52,5.64,10.47,8.06,21.77,6.11,33.76-3.59,22.1-16.07,36.82-36.94,44.62C309.83,269.7,303.54,269.8,297.26,270.06Z"/><path class="cls-1" d="M344.76,317.73c-.54-16.59,11.71-25.42,24.35-28.29,10.2-2.31,19.6-.09,27.4,6.87,15,13.43,13.67,33.91,2.47,44.67-5.16,5-11.18,8.6-18.2,9.95-13.4,2.57-26.29-5-31.57-16C346.63,329.58,344.52,324.05,344.76,317.73Z"/><path class="cls-1" d="M252.1,320.12c.46,17.26-12.6,31.05-32.77,30.44-14.06-.42-29.9-13.1-28.66-32.89a30.7,30.7,0,0,1,29.71-28.55C240,288.67,252.63,304.16,252.1,320.12Z"/><path class="cls-1" d="M298.09,125.79c1.05,1.9,1.19,3.92,1.54,5.86,1.2,6.68,2.27,13.38,3.41,20.07.24,1.42.21,2.35-1.75,1.79-2.11-.61-4.28-.17-6.39.22-1.31.24-1.48-.32-1.26-1.37C295.45,143.61,295.78,134.61,298.09,125.79Z"/><path class="cls-1" d="M280.25,155.8a23,23,0,0,0-7.79,2.93c-3.52-9.18-6.91-18.27-8.84-27.9A221,221,0,0,1,280.25,155.8Z"/><path class="cls-1" d="M260.58,166a28.29,28.29,0,0,0-7.61,6.55c-5.16-8.18-10.18-16.12-15.21-24.07l.48-.39C245.68,153.93,252.69,160.31,260.58,166Z"/><path class="cls-1" d="M360.84,214.8a21.07,21.07,0,0,0-.74-6.52c-.35-1.16.27-1.13,1.06-1.19,5.35-.41,10.68-1,16-1.23,4.2-.22,8.37-1,12.67-.6C380.89,210.29,370.8,212,360.84,214.8Z"/><path class="cls-1" d="M380.67,176.12a133.72,133.72,0,0,1-11.61,10.45c-3.25,2.71-6.55,5.36-9.7,8.18-1.45,1.3-1.89.82-2.3-.72A15,15,0,0,0,354.8,189c-.91-1.25-.38-1.65.75-2.12,5.4-2.25,10.81-4.51,16.18-6.85,2.94-1.29,5.8-2.77,8.7-4.16A2.09,2.09,0,0,0,380.67,176.12Z"/><path class="cls-1" d="M318,156.54c5.08-7.62,9.83-15.23,15.32-22.37a20.32,20.32,0,0,1-1.33,7.44c-1.76,5.49-3.58,11-5.58,16.38-.61,1.66-1.12,1.87-2.58.93A23.3,23.3,0,0,0,318,156.54Z"/><path class="cls-1" d="M206.24,199.89c3.55.13,6.9,1.17,10.29,2,5.7,1.35,11.41,2.68,17.14,3.87,1.39.28,1.6.76,1.28,2-.47,1.79-.9,3.6-1.2,5.43-.15.88-.43,1.18-1.21.73C223.92,209,215,204.58,206.24,199.89Z"/><path class="cls-1" d="M240.52,189.08c-7.6-5.84-16-10.2-23.2-16.39,9.07,2.56,17.8,6.08,26.94,9.21A34.49,34.49,0,0,0,240.52,189.08Z"/><path class="cls-1" d="M345.5,174.37c-1.71-1.39-3.34-2.78-5-4.08-1.21-.93-.06-1.33.38-1.77,3.91-3.9,7.86-7.76,11.8-11.63,1.3-1.28,2.62-2.54,3.93-3.81l.47.38C353.21,160.4,349.38,167.35,345.5,174.37Z"/><path class="cls-9" d="M380.43,175.84c.17,0,.45-.12.49-.06.15.24-.07.29-.25.34A2.09,2.09,0,0,1,380.43,175.84Z"/></svg>