<svg id="Layer_1" data-name="Layer 1" xmlns="http://www.w3.org/2000/svg" viewBox="0 0 600.65 597.69"><defs><style>.cls-1{fill:#ffce2f;}.cls-2{fill:#3e4ba0;}.cls-3{fill:#3b4fa2;}.cls-4{fill:#3c4ba0;}.cls-5{fill:#fefefe;}.cls-6{fill:#fdfdfd;}.cls-7{fill:#f8f7f7;}.cls-8{fill:#f7f7f7;}.cls-9{fill:#f8f8f7;}.cls-10{fill:#f6f6f6;}.cls-11{fill:#f6f5f5;}.cls-12{fill:#f8f8f8;}.cls-13{fill:#fff;}.cls-14{font-size:36.17px;fill:#3d489e;font-family:AdventSans-Logo, Advent Sans;}.cls-15{letter-spacing:-0.04em;}.cls-16{letter-spacing:-0.07em;}.cls-17{letter-spacing:0em;}</style></defs><circle class="cls-1" cx="302.04" cy="227.65" r="112.18"/><path class="cls-2" d="M313.2,210.19a11.6,11.6,0,0,0-2.7,4.17c-1.79,3.81-2.4,7.94-3.07,12a89.89,89.89,0,0,0-1,19.53c.27,4.82,1.34,9.51,2.13,14.25,1.25,7.53,3,15,4.55,22.43,1.07,5.12,1.75,10.31,2.84,15.42,1.86,8.75,1.87,17.57,1.78,26.43-.05,4.17,0,8.34-.24,12.51-.07,1.2-.45,1.79-1.59,2.05a56.66,56.66,0,0,1-11.38,1.25,69.83,69.83,0,0,1-15.41-1,2,2,0,0,1-1.87-2c0-.64-.23-1.28-.22-1.92,0-7.4-.57-14.8-.24-22.19.18-3.9.77-7.77,1.16-11.66.8-8.17,2.78-16.13,4.61-24.1,1.41-6.18,2.88-12.36,3.83-18.62,1.33-8.76,2.26-17.6,1.65-26.47a58.23,58.23,0,0,0-4.24-18.72,9.74,9.74,0,0,0-2.43-3.77c0,2.92,0,5.55,0,8.18a83.28,83.28,0,0,1-1.79,18.42,34,34,0,0,1-8.31,16c-4.12,4.34-9.41,6.77-15.06,8.52a86.47,86.47,0,0,1-16.65,3.09c-6.87.71-13.77,1.34-20.49,2.94-7.4,1.76-14.56,4.24-20.75,8.91-1.47,1.1-3.08,2-4.6,3.08-.57.4-.84.29-1.18-.29a60.56,60.56,0,0,1-5-10.56c-1.41-3.95-2.76-7.92-3.82-12a123.9,123.9,0,0,1-2.92-14.34,123.91,123.91,0,0,1-.91-17.74A102.45,102.45,0,0,1,191.49,208c3.69-22.3,13.41-41.63,28.65-58.23A111.47,111.47,0,0,1,257,123.4a105.64,105.64,0,0,1,21.3-7,96.53,96.53,0,0,1,19-2.43c7.42-.09,14.88-.24,22.25,1.08a119.57,119.57,0,0,1,28.33,8.46A113.16,113.16,0,0,1,403.62,179a117.41,117.41,0,0,1,8,23.24c.66,2.93,1.06,5.9,1.55,8.85,1.32,8,1,16,.8,23.93a92.47,92.47,0,0,1-2,15.42,118,118,0,0,1-9.38,27c-.16.34-.39.66-.58,1-.5.88-1,.84-1.74.18-4.33-4.14-9.55-6.81-15-9-7.34-2.95-15.08-4.07-22.88-5.08-8.36-1.09-16.79-1.84-24.94-4.3-11.64-3.52-18.9-11.25-22.15-22.8a55.14,55.14,0,0,1-2-14.88c0-3.82-.16-7.65,0-11.47C313.28,210.88,313.24,210.67,313.2,210.19ZM351.45,151c-1.73.84-3.45,1.72-5.21,2.49-3.22,1.41-6.46,2.76-9.7,4.11-.68.28-1,.52-.45,1.27a8.85,8.85,0,0,1,1.35,3c.25.92.51,1.21,1.38.43,1.89-1.69,3.87-3.28,5.82-4.91a79.46,79.46,0,0,0,7-6.26c.11,0,.24-.06.15-.2S351.56,151,351.45,151Zm-49.86,56.49c3.77-.16,7.54-.22,11.14-1.56,12.52-4.67,20-13.5,22.15-26.75A31.21,31.21,0,0,0,331.21,159c-4.92-9.14-12.85-14.48-22.91-16.5a33.65,33.65,0,0,0-15.9.91c-11,3.08-18.07,10.37-22.11,20.73a29.4,29.4,0,0,0,.33,22.23C275.29,198,287.24,208,301.59,207.53Zm28.48,28.58c-.14,3.79,1.12,7.11,2.67,10.32A17.64,17.64,0,0,0,351.66,256a21.55,21.55,0,0,0,10.92-6c6.71-6.45,7.52-18.73-1.49-26.78a17.68,17.68,0,0,0-16.42-4.12C337.09,220.87,329.75,226.16,330.07,236.11Zm-55.55,1.43a18.11,18.11,0,0,0-19-18.58,18.44,18.44,0,0,0-.63,36.83C267,256.16,274.79,247.89,274.52,237.54ZM302.09,121c-1.38,5.29-1.58,10.69-2.67,15.93-.13.63,0,1,.76.82a8.42,8.42,0,0,1,3.83-.13c1.17.34,1.19-.22,1.05-1.07-.68-4-1.33-8-2.05-12A10.8,10.8,0,0,0,302.09,121Zm-10.7,18a132.33,132.33,0,0,0-10-15,102.1,102.1,0,0,0,5.3,16.72A13.55,13.55,0,0,1,291.39,139Zm-11.79,6.11c-4.73-3.41-8.93-7.23-13.39-10.74l-.29.24L275,149.07A16.91,16.91,0,0,1,279.6,145.14Zm60.11,29.26c6-1.7,12-2.7,17.4-5.72-2.58-.24-5.08.23-7.59.36-3.21.16-6.41.49-9.62.74-.47,0-.84,0-.63.71A12.8,12.8,0,0,1,339.71,174.4ZM314,139.47a13.21,13.21,0,0,1,3.49,1.43c.88.56,1.18.43,1.55-.56,1.2-3.25,2.29-6.53,3.34-9.82a12.12,12.12,0,0,0,.8-4.46C319.91,130.34,317.06,134.9,314,139.47Zm-67,26c5.28,2.81,10.6,5.44,15.77,8.38.47.27.64.09.72-.44.19-1.09.44-2.18.73-3.25.19-.73.06-1-.77-1.19-3.44-.71-6.86-1.51-10.28-2.32A32,32,0,0,0,247,165.46ZM267.57,159a20.78,20.78,0,0,1,2.25-4.31c-5.49-1.87-10.71-4-16.15-5.52C258,152.87,263,155.48,267.57,159Zm62.95-8.82,6.92-12.54-.29-.22-2.36,2.28q-3.54,3.48-7.07,7c-.26.27-1,.5-.22,1.06C328.51,148.49,329.49,149.33,330.52,150.16Z"/><path class="cls-3" d="M243.6,307.49a90.44,90.44,0,0,1-1.3,13.69c-.17,1.14-.71.69-1.23.43A42.51,42.51,0,0,1,234,317a114.66,114.66,0,0,1-23.47-24.66,84.7,84.7,0,0,1-4.71-7.67c-.42-.76-.37-1.13.43-1.57a34.51,34.51,0,0,1,14-4.28,26.58,26.58,0,0,1,9.81.77c5.33,1.55,8.81,5.13,10.94,10.12C243.23,295,243.62,300.65,243.6,307.49Z"/><path class="cls-4" d="M361.88,306.54a55.36,55.36,0,0,1,.73-12.42c1.09-5.8,4.44-9.95,9.36-12.91a20.89,20.89,0,0,1,13.2-2.91,23.23,23.23,0,0,1,6.28,1.77c2.06.84,4.06,1.82,6.06,2.78,1.21.59,1.22,1.14.63,2.22a89.28,89.28,0,0,1-8.92,13.05c-6.9,8.69-15.15,15.92-24,22.47-.68.5-1.52,1.25-2.24,1s-.37-1.39-.44-2.13A78.23,78.23,0,0,1,361.88,306.54Z"/><path class="cls-5" d="M301.59,207.53c-14.35.44-26.3-9.49-31-21.18a29.4,29.4,0,0,1-.33-22.23c4-10.36,11.13-17.65,22.11-20.73a33.65,33.65,0,0,1,15.9-.91c10.06,2,18,7.36,22.91,16.5a31.21,31.21,0,0,1,3.67,20.24c-2.16,13.25-9.63,22.08-22.15,26.75C309.13,207.31,305.36,207.37,301.59,207.53Z"/><path class="cls-5" d="M330.07,236.11c-.32-10,7-15.24,14.6-17a17.68,17.68,0,0,1,16.42,4.12c9,8,8.2,20.33,1.49,26.78a21.55,21.55,0,0,1-10.92,6,17.64,17.64,0,0,1-18.92-9.58C331.19,243.22,329.93,239.9,330.07,236.11Z"/><path class="cls-6" d="M274.52,237.54c.27,10.35-7.56,18.62-19.65,18.25A18.44,18.44,0,0,1,255.5,219,18.11,18.11,0,0,1,274.52,237.54Z"/><path class="cls-7" d="M302.09,121a10.8,10.8,0,0,1,.92,3.52c.72,4,1.37,8,2.05,12,.14.85.12,1.41-1.05,1.07a8.42,8.42,0,0,0-3.83.13c-.79.15-.89-.19-.76-.82C300.51,131.72,300.71,126.32,302.09,121Z"/><path class="cls-8" d="M291.39,139a13.55,13.55,0,0,0-4.66,1.75,102.1,102.1,0,0,1-5.3-16.72A132.33,132.33,0,0,1,291.39,139Z"/><path class="cls-8" d="M279.6,145.14a16.91,16.91,0,0,0-4.56,3.93l-9.12-14.43.29-.24C270.67,137.91,274.87,141.73,279.6,145.14Z"/><path class="cls-7" d="M339.71,174.4a12.8,12.8,0,0,0-.44-3.91c-.21-.7.16-.68.63-.71,3.21-.25,6.41-.58,9.62-.74,2.51-.13,5-.6,7.59-.36C351.73,171.7,345.69,172.7,339.71,174.4Z"/><path class="cls-9" d="M351.6,151.21a79.46,79.46,0,0,1-7,6.26c-1.95,1.63-3.93,3.22-5.82,4.91-.87.78-1.13.49-1.38-.43a8.85,8.85,0,0,0-1.35-3c-.54-.75-.23-1,.45-1.27,3.24-1.35,6.48-2.7,9.7-4.11,1.76-.77,3.48-1.65,5.21-2.49Z"/><path class="cls-10" d="M314,139.47c3-4.57,5.89-9.13,9.18-13.41a12.12,12.12,0,0,1-.8,4.46c-1,3.29-2.14,6.57-3.34,9.82-.37,1-.67,1.12-1.55.56A13.21,13.21,0,0,0,314,139.47Z"/><path class="cls-9" d="M247,165.46a32,32,0,0,1,6.17,1.18c3.42.81,6.84,1.61,10.28,2.32.83.17,1,.46.77,1.19-.29,1.07-.54,2.16-.73,3.25-.08.53-.25.71-.72.44C257.62,170.9,252.3,168.27,247,165.46Z"/><path class="cls-11" d="M267.57,159c-4.55-3.5-9.6-6.11-13.9-9.83,5.44,1.54,10.66,3.65,16.15,5.52A20.78,20.78,0,0,0,267.57,159Z"/><path class="cls-12" d="M330.52,150.16c-1-.83-2-1.67-3-2.45-.73-.56,0-.79.22-1.06q3.52-3.5,7.07-7l2.36-2.28.29.22Z"/><path class="cls-9" d="M351.45,151c.11,0,.28-.07.3,0s0,.17-.15.2Z"/><path class="cls-13" d="M313.2,210.19c0,.48.08.69.07.89-.19,3.82,0,7.65,0,11.47a55.14,55.14,0,0,0,2,14.88c3.25,11.55,10.51,19.28,22.15,22.8,8.15,2.46,16.58,3.21,24.94,4.3,7.8,1,15.54,2.13,22.88,5.08,5.48,2.2,10.7,4.87,15,9,.69.66,1.24.7,1.74-.18.19-.33.42-.65.58-1a118,118,0,0,0,9.38-27,92.47,92.47,0,0,0,2-15.42c.22-8,.52-16-.8-23.93-.49-2.95-.89-5.92-1.55-8.85a117.41,117.41,0,0,0-8-23.24,113.16,113.16,0,0,0-55.76-55.53,119.57,119.57,0,0,0-28.33-8.46c-7.37-1.32-14.83-1.17-22.25-1.08a96.53,96.53,0,0,0-19,2.43,105.64,105.64,0,0,0-21.3,7,111.47,111.47,0,0,0-36.85,26.35c-15.24,16.6-25,35.93-28.65,58.23a102.45,102.45,0,0,0-1.57,16.11,123.91,123.91,0,0,0,.91,17.74,123.9,123.9,0,0,0,2.92,14.34c1.06,4.06,2.41,8,3.82,12a60.56,60.56,0,0,0,5,10.56c.34.58.61.69,1.18.29,1.52-1.05,3.13-2,4.6-3.08,6.19-4.67,13.35-7.15,20.75-8.91,6.72-1.6,13.62-2.23,20.49-2.94A86.47,86.47,0,0,0,266.21,261c5.65-1.75,10.94-4.18,15.06-8.52a34,34,0,0,0,8.31-16A83.28,83.28,0,0,0,291.37,218c0-2.63,0-5.26,0-8.18a9.74,9.74,0,0,1,2.43,3.77A58.23,58.23,0,0,1,298,232.33c.61,8.87-.32,17.71-1.65,26.47-.95,6.26-2.42,12.44-3.83,18.62-1.83,8-3.81,15.93-4.61,24.1-.39,3.89-1,7.76-1.16,11.66-.33,7.39.28,14.79.24,22.19,0,.64.18,1.28.22,1.92a2,2,0,0,0,1.87,2,69.83,69.83,0,0,0,15.41,1A56.66,56.66,0,0,0,315.91,339c1.14-.26,1.52-.85,1.59-2.05.24-4.17.19-8.34.24-12.51.09-8.86.08-17.68-1.78-26.43-1.09-5.11-1.77-10.3-2.84-15.42-1.56-7.47-3.3-14.9-4.55-22.43-.79-4.74-1.86-9.43-2.13-14.25a89.89,89.89,0,0,1,1-19.53c.67-4.09,1.28-8.22,3.07-12A11.6,11.6,0,0,1,313.2,210.19Z"/><path class="cls-13" d="M243.6,307.49c0-6.84-.37-12.48-2.63-17.8-2.13-5-5.61-8.57-10.94-10.12a26.58,26.58,0,0,0-9.81-.77,34.51,34.51,0,0,0-14,4.28c-.8.44-.85.81-.43,1.57a84.7,84.7,0,0,0,4.71,7.67A114.66,114.66,0,0,0,234,317a42.51,42.51,0,0,0,7.11,4.63c.52.26,1.06.71,1.23-.43A90.44,90.44,0,0,0,243.6,307.49Z"/><path class="cls-13" d="M361.88,306.54a78.23,78.23,0,0,0,.62,12.88c.07.74-.14,1.9.44,2.13s1.56-.46,2.24-1c8.89-6.55,17.14-13.78,24-22.47a89.28,89.28,0,0,0,8.92-13.05c.59-1.08.58-1.63-.63-2.22-2-1-4-1.94-6.06-2.78a23.23,23.23,0,0,0-6.28-1.77,20.89,20.89,0,0,0-13.2,2.91c-4.92,3-8.27,7.11-9.36,12.91A55.36,55.36,0,0,0,361.88,306.54Z"/><path class="cls-2" d="M313.2,210.19a11.6,11.6,0,0,0-2.7,4.17c-1.79,3.81-2.4,7.94-3.07,12a89.89,89.89,0,0,0-1,19.53c.27,4.82,1.34,9.51,2.13,14.25,1.25,7.53,3,15,4.55,22.43,1.07,5.12,1.75,10.31,2.84,15.42,1.86,8.75,1.87,17.57,1.78,26.43-.05,4.17,0,8.34-.24,12.51-.07,1.2-.45,1.79-1.59,2.05a56.66,56.66,0,0,1-11.38,1.25,69.83,69.83,0,0,1-15.41-1,2,2,0,0,1-1.87-2c0-.64-.23-1.28-.22-1.92,0-7.4-.57-14.8-.24-22.19.18-3.9.77-7.77,1.16-11.66.8-8.17,2.78-16.13,4.61-24.1,1.41-6.18,2.88-12.36,3.83-18.62,1.33-8.76,2.26-17.6,1.65-26.47a58.23,58.23,0,0,0-4.24-18.72,9.74,9.74,0,0,0-2.43-3.77c0,2.92,0,5.55,0,8.18a83.28,83.28,0,0,1-1.79,18.42,34,34,0,0,1-8.31,16c-4.12,4.34-9.41,6.77-15.06,8.52a86.47,86.47,0,0,1-16.65,3.09c-6.87.71-13.77,1.34-20.49,2.94-7.4,1.76-14.56,4.24-20.75,8.91-1.47,1.1-3.08,2-4.6,3.08-.57.4-.84.29-1.18-.29a60.56,60.56,0,0,1-5-10.56c-1.41-3.95-2.76-7.92-3.82-12a123.9,123.9,0,0,1-2.92-14.34,123.91,123.91,0,0,1-.91-17.74A102.45,102.45,0,0,1,191.49,208c3.69-22.3,13.41-41.63,28.65-58.23A111.47,111.47,0,0,1,257,123.4a105.64,105.64,0,0,1,21.3-7,96.53,96.53,0,0,1,19-2.43c7.42-.09,14.88-.24,22.25,1.08a119.57,119.57,0,0,1,28.33,8.46A113.16,113.16,0,0,1,403.62,179a117.41,117.41,0,0,1,8,23.24c.66,2.93,1.06,5.9,1.55,8.85,1.32,8,1,16,.8,23.93a92.47,92.47,0,0,1-2,15.42,118,118,0,0,1-9.38,27c-.16.34-.39.66-.58,1-.5.88-1,.84-1.74.18-4.33-4.14-9.55-6.81-15-9-7.34-2.95-15.08-4.07-22.88-5.08-8.36-1.09-16.79-1.84-24.94-4.3-11.64-3.52-18.9-11.25-22.15-22.8a55.14,55.14,0,0,1-2-14.88c0-3.82-.16-7.65,0-11.47C313.28,210.88,313.24,210.67,313.2,210.19ZM351.45,151c-1.73.84-3.45,1.72-5.21,2.49-3.22,1.41-6.46,2.76-9.7,4.11-.68.28-1,.52-.45,1.27a8.85,8.85,0,0,1,1.35,3c.25.92.51,1.21,1.38.43,1.89-1.69,3.87-3.28,5.82-4.91a79.46,79.46,0,0,0,7-6.26c.11,0,.24-.06.15-.2S351.56,151,351.45,151Zm-49.86,56.49c3.77-.16,7.54-.22,11.14-1.56,12.52-4.67,20-13.5,22.15-26.75A31.21,31.21,0,0,0,331.21,159c-4.92-9.14-12.85-14.48-22.91-16.5a33.65,33.65,0,0,0-15.9.91c-11,3.08-18.07,10.37-22.11,20.73a29.4,29.4,0,0,0,.33,22.23C275.29,198,287.24,208,301.59,207.53Zm28.48,28.58c-.14,3.79,1.12,7.11,2.67,10.32A17.64,17.64,0,0,0,351.66,256a21.55,21.55,0,0,0,10.92-6c6.71-6.45,7.52-18.73-1.49-26.78a17.68,17.68,0,0,0-16.42-4.12C337.09,220.87,329.75,226.16,330.07,236.11Zm-55.55,1.43a18.11,18.11,0,0,0-19-18.58,18.44,18.44,0,0,0-.63,36.83C267,256.16,274.79,247.89,274.52,237.54ZM302.09,121c-1.38,5.29-1.58,10.69-2.67,15.93-.13.63,0,1,.76.82a8.42,8.42,0,0,1,3.83-.13c1.17.34,1.19-.22,1.05-1.07-.68-4-1.33-8-2.05-12A10.8,10.8,0,0,0,302.09,121Zm-10.7,18a132.33,132.33,0,0,0-10-15,102.1,102.1,0,0,0,5.3,16.72A13.55,13.55,0,0,1,291.39,139Zm-11.79,6.11c-4.73-3.41-8.93-7.23-13.39-10.74l-.29.24L275,149.07A16.91,16.91,0,0,1,279.6,145.14Zm60.11,29.26c6-1.7,12-2.7,17.4-5.72-2.58-.24-5.08.23-7.59.36-3.21.16-6.41.49-9.62.74-.47,0-.84,0-.63.71A12.8,12.8,0,0,1,339.71,174.4ZM314,139.47a13.21,13.21,0,0,1,3.49,1.43c.88.56,1.18.43,1.55-.56,1.2-3.25,2.29-6.53,3.34-9.82a12.12,12.12,0,0,0,.8-4.46C319.91,130.34,317.06,134.9,314,139.47Zm-67,26c5.28,2.81,10.6,5.44,15.77,8.38.47.27.64.09.72-.44.19-1.09.44-2.18.73-3.25.19-.73.06-1-.77-1.19-3.44-.71-6.86-1.51-10.28-2.32A32,32,0,0,0,247,165.46ZM267.57,159a20.78,20.78,0,0,1,2.25-4.31c-5.49-1.87-10.71-4-16.15-5.52C258,152.87,263,155.48,267.57,159Zm62.95-8.82,6.92-12.54-.29-.22-2.36,2.28q-3.54,3.48-7.07,7c-.26.27-1,.5-.22,1.06C328.51,148.49,329.49,149.33,330.52,150.16Z"/><path class="cls-3" d="M243.6,307.49a90.44,90.44,0,0,1-1.3,13.69c-.17,1.14-.71.69-1.23.43A42.51,42.51,0,0,1,234,317a114.66,114.66,0,0,1-23.47-24.66,84.7,84.7,0,0,1-4.71-7.67c-.42-.76-.37-1.13.43-1.57a34.51,34.51,0,0,1,14-4.28,26.58,26.58,0,0,1,9.81.77c5.33,1.55,8.81,5.13,10.94,10.12C243.23,295,243.62,300.65,243.6,307.49Z"/><path class="cls-4" d="M361.88,306.54a55.36,55.36,0,0,1,.73-12.42c1.09-5.8,4.44-9.95,9.36-12.91a20.89,20.89,0,0,1,13.2-2.91,23.23,23.23,0,0,1,6.28,1.77c2.06.84,4.06,1.82,6.06,2.78,1.21.59,1.22,1.14.63,2.22a89.28,89.28,0,0,1-8.92,13.05c-6.9,8.69-15.15,15.92-24,22.47-.68.5-1.52,1.25-2.24,1s-.37-1.39-.44-2.13A78.23,78.23,0,0,1,361.88,306.54Z"/><path class="cls-1" d="M301.59,207.53c-14.35.44-26.3-9.49-31-21.18a29.4,29.4,0,0,1-.33-22.23c4-10.36,11.13-17.65,22.11-20.73a33.65,33.65,0,0,1,15.9-.91c10.06,2,18,7.36,22.91,16.5a31.21,31.21,0,0,1,3.67,20.24c-2.16,13.25-9.63,22.08-22.15,26.75C309.13,207.31,305.36,207.37,301.59,207.53Z"/><path class="cls-1" d="M330.07,236.11c-.32-10,7-15.24,14.6-17a17.68,17.68,0,0,1,16.42,4.12c9,8,8.2,20.33,1.49,26.78a21.55,21.55,0,0,1-10.92,6,17.64,17.64,0,0,1-18.92-9.58C331.19,243.22,329.93,239.9,330.07,236.11Z"/><path class="cls-1" d="M274.52,237.54c.27,10.35-7.56,18.62-19.65,18.25A18.44,18.44,0,0,1,255.5,219,18.11,18.11,0,0,1,274.52,237.54Z"/><path class="cls-1" d="M302.09,121a10.8,10.8,0,0,1,.92,3.52c.72,4,1.37,8,2.05,12,.14.85.12,1.41-1.05,1.07a8.42,8.42,0,0,0-3.83.13c-.79.15-.89-.19-.76-.82C300.51,131.72,300.71,126.32,302.09,121Z"/><path class="cls-1" d="M291.39,139a13.55,13.55,0,0,0-4.66,1.75,102.1,102.1,0,0,1-5.3-16.72A132.33,132.33,0,0,1,291.39,139Z"/><path class="cls-1" d="M279.6,145.14a16.91,16.91,0,0,0-4.56,3.93l-9.12-14.43.29-.24C270.67,137.91,274.87,141.73,279.6,145.14Z"/><path class="cls-1" d="M339.71,174.4a12.8,12.8,0,0,0-.44-3.91c-.21-.7.16-.68.63-.71,3.21-.25,6.41-.58,9.62-.74,2.51-.13,5-.6,7.59-.36C351.73,171.7,345.69,172.7,339.71,174.4Z"/><path class="cls-1" d="M351.6,151.21a79.46,79.46,0,0,1-7,6.26c-1.95,1.63-3.93,3.22-5.82,4.91-.87.78-1.13.49-1.38-.43a8.85,8.85,0,0,0-1.35-3c-.54-.75-.23-1,.45-1.27,3.24-1.35,6.48-2.7,9.7-4.11,1.76-.77,3.48-1.65,5.21-2.49Z"/><path class="cls-1" d="M314,139.47c3-4.57,5.89-9.13,9.18-13.41a12.12,12.12,0,0,1-.8,4.46c-1,3.29-2.14,6.57-3.34,9.82-.37,1-.67,1.12-1.55.56A13.21,13.21,0,0,0,314,139.47Z"/><path class="cls-1" d="M247,165.46a32,32,0,0,1,6.17,1.18c3.42.81,6.84,1.61,10.28,2.32.83.17,1,.46.77,1.19-.29,1.07-.54,2.16-.73,3.25-.08.53-.25.71-.72.44C257.62,170.9,252.3,168.27,247,165.46Z"/><path class="cls-1" d="M267.57,159c-4.55-3.5-9.6-6.11-13.9-9.83,5.44,1.54,10.66,3.65,16.15,5.52A20.78,20.78,0,0,0,267.57,159Z"/><path class="cls-1" d="M330.52,150.16c-1-.83-2-1.67-3-2.45-.73-.56,0-.79.22-1.06q3.52-3.5,7.07-7l2.36-2.28.29.22Z"/><path class="cls-9" d="M351.45,151c.11,0,.28-.07.3,0s0,.17-.15.2Z"/><text class="cls-14" transform="translate(169.24 383.96)">KESHO ANG<tspan class="cls-15" x="197.97" y="0">A</tspan><tspan x="218.91" y="0">VU</tspan><tspan x="46.84" y="43.41">INITI</tspan><tspan class="cls-16" x="127.61" y="43.41">A</tspan><tspan class="cls-17" x="147.47" y="43.41">TIVE</tspan></text></svg>